<?xml version="1.0" standalone="no"?>
<!DOCTYPE svg PUBLIC "-//W3C//DTD SVG 20010904//EN"
 "http://www.w3.org/TR/2001/REC-SVG-20010904/DTD/svg10.dtd">
<svg version="1.0" xmlns="http://www.w3.org/2000/svg"
 width="512.000000pt" height="512.000000pt" viewBox="0 0 512.000000 512.000000"
 preserveAspectRatio="xMidYMid meet">
<metadata>
Created by potrace 1.11, written by Peter Selinger 2001-2013
</metadata>
<g transform="translate(0.000000,512.000000) scale(0.100000,-0.100000)"
fill="#000000" stroke="none">
<path d="M3862 4879 c-13 -5 -36 -11 -50 -14 -80 -15 -99 -28 -142 -104 -7
-12 -10 -12 -24 2 -50 49 -149 41 -381 -33 -233 -74 -416 -123 -477 -128 l-67
-5 -3 48 c-4 71 -32 88 -141 88 -151 0 -222 -55 -214 -165 2 -32 3 -58 2 -58
0 0 -23 -8 -50 -18 -42 -16 -145 -41 -231 -58 -12 -2 -24 -10 -27 -17 -6 -15
37 -269 53 -313 28 -77 137 -71 215 12 38 40 52 42 90 12 l28 -22 -99 -33
c-155 -51 -438 -132 -488 -138 -41 -6 -44 -5 -39 14 8 31 -32 88 -67 96 -58
13 -227 -57 -244 -101 -12 -32 -5 -61 19 -84 23 -22 24 -25 9 -41 -17 -19
-138 -66 -194 -74 -19 -3 -42 -8 -51 -10 -8 -3 -38 -7 -66 -9 l-51 -4 30 43
c25 35 31 53 31 101 1 33 -4 73 -11 89 -17 40 -78 85 -114 85 -26 0 -28 3 -22
28 3 15 35 86 70 158 89 179 106 253 65 279 -20 12 -11 25 18 25 39 0 93 62
144 163 l38 76 -25 40 c-14 22 -30 43 -37 46 -6 4 -35 -1 -65 -11 -51 -17 -54
-17 -73 0 -40 37 -156 -10 -203 -82 -27 -39 -110 -101 -172 -127 -33 -14 -162
-135 -192 -179 -8 -13 -17 -34 -19 -46 -6 -33 -53 -89 -89 -106 -20 -10 -46
-40 -74 -83 -27 -44 -52 -73 -70 -80 -29 -12 -74 -83 -150 -236 -83 -167 -179
-463 -205 -630 -3 -16 -7 -41 -11 -55 -6 -28 -13 -82 -24 -185 -9 -88 -8 -435
1 -495 4 -25 9 -63 11 -85 7 -82 19 -143 53 -280 85 -340 230 -641 455 -942
83 -112 316 -351 428 -440 409 -324 896 -514 1413 -551 158 -11 357 -6 497 12
14 2 50 7 80 10 102 14 284 58 415 101 772 257 1378 866 1630 1638 54 165 103
407 110 539 2 37 6 71 8 75 6 10 1 410 -6 443 -3 14 -8 48 -11 75 -48 386
-205 792 -434 1118 -59 85 -87 106 -119 88 -18 -9 -28 -1 -85 67 -36 43 -71
95 -78 117 -25 75 -156 185 -220 185 -17 0 -125 72 -150 100 -14 15 -82 61
-102 69 -13 5 -33 5 -46 0z m155 -139 c65 -49 127 -89 138 -88 36 1 75 -21
125 -71 31 -31 50 -59 50 -73 0 -14 38 -68 94 -138 l94 -115 -31 -12 c-18 -6
-60 -21 -94 -34 -69 -24 -85 -46 -58 -82 56 -77 65 -92 65 -108 0 -43 -124
-79 -177 -50 -12 6 -29 32 -39 58 -21 59 -47 89 -82 96 -33 6 -96 -13 -147
-45 -57 -35 -191 -103 -252 -127 l-52 -20 -92 107 c-126 147 -151 187 -138
220 15 38 26 42 100 35 60 -5 68 -4 87 18 32 34 32 81 0 144 -29 58 -67 94
-107 102 -48 9 -64 6 -118 -23 -56 -29 -73 -30 -106 -4 -23 18 -77 102 -77
119 0 6 176 68 214 75 153 32 181 28 218 -28 13 -19 37 -41 54 -50 60 -28 164
-5 181 40 8 22 -13 56 -52 83 -19 13 -35 27 -35 31 0 7 68 25 107 29 6 0 65
-39 130 -89z m-2903 38 c-4 -7 -14 -21 -22 -30 -14 -16 -13 -18 2 -18 9 0 35
9 58 21 34 17 128 34 128 22 0 -7 -27 -50 -53 -85 -24 -31 -35 -38 -63 -38
-45 0 -84 -20 -114 -60 -40 -52 -51 -85 -35 -107 13 -17 15 -17 59 7 25 13 48
22 51 19 14 -15 -92 -258 -129 -295 -9 -9 -150 -50 -243 -71 -30 -7 -29 8 2
56 14 20 30 52 35 69 8 29 6 33 -16 38 -55 14 -117 -37 -159 -132 -25 -57 -60
-77 -129 -72 -35 2 -35 2 -18 23 10 11 34 44 52 74 20 32 44 57 60 62 33 12
104 103 106 136 2 39 122 160 199 199 28 15 65 37 83 51 17 13 32 20 32 16 -1
-17 -121 -158 -142 -166 -31 -11 -34 -1 -10 33 25 34 28 44 8 33 -17 -10 -66
-80 -66 -95 0 -6 7 -7 18 -3 61 26 62 24 11 -51 -30 -44 -29 -60 4 -42 17 9
19 8 14 -6 -4 -9 -10 -23 -13 -31 -13 -32 23 -13 39 20 21 45 21 45 -3 45 -11
0 -20 2 -20 4 0 14 177 248 193 254 15 7 6 21 -10 15 -12 -5 -7 7 15 33 55 66
94 103 76 72z m1517 -97 c22 -1 26 -5 25 -28 -2 -36 19 -80 43 -93 40 -21 128
-10 287 35 86 25 158 44 159 43 1 -2 19 -29 40 -61 49 -76 109 -112 168 -103
23 4 60 18 83 31 55 32 77 24 119 -43 39 -63 42 -78 19 -110 -14 -21 -21 -23
-63 -16 -87 13 -110 5 -135 -45 -21 -42 -12 -76 34 -138 24 -32 46 -60 50 -63
13 -11 140 -168 140 -173 0 -15 -319 -109 -385 -114 -92 -7 -104 4 -80 76 29
87 13 111 -88 130 -121 22 -328 -56 -358 -137 -22 -56 28 -119 109 -137 58
-14 73 -36 47 -65 -11 -12 -34 -28 -51 -35 -29 -12 -216 -57 -291 -69 -69 -12
-90 -15 -138 -22 -27 -3 -53 -8 -57 -10 -11 -7 -16 8 -37 102 -23 103 -29 145
-36 231 -6 80 9 93 110 93 82 0 128 20 162 69 26 38 22 76 -15 144 -30 57 -69
88 -115 91 -39 3 -57 -6 -120 -61 -80 -70 -108 -57 -123 54 -3 27 -9 65 -14
86 -9 41 -4 46 41 54 52 8 184 50 225 72 43 23 94 65 94 79 0 4 -13 21 -30 37
-16 16 -30 34 -30 41 0 28 89 62 155 58 16 -1 42 -2 56 -3z m-1871 -423 c0 -6
-13 -32 -29 -57 -64 -101 -50 -116 78 -83 48 12 106 25 130 28 41 7 43 6 33
-13 -6 -11 -14 -40 -17 -65 -5 -34 -2 -49 12 -67 20 -25 74 -34 107 -18 59 29
61 -133 2 -182 -17 -14 -84 -18 -131 -8 -42 9 -106 -44 -143 -118 -39 -80 -47
-118 -47 -239 l0 -120 -30 -8 c-16 -5 -78 -12 -136 -15 -152 -8 -172 10 -123
114 47 98 32 153 -41 153 -35 0 -69 -21 -86 -52 -6 -12 -13 -53 -16 -92 -5
-80 -26 -125 -66 -144 -24 -11 -35 -10 -87 10 -33 13 -60 29 -60 37 0 32 44
189 52 185 18 -12 38 21 66 109 40 121 43 139 31 153 -7 8 -7 14 1 19 5 3 10
13 10 22 0 17 83 185 112 226 19 27 24 28 69 22 39 -6 58 -3 94 15 44 21 95
80 95 109 0 23 48 79 72 84 41 8 48 7 48 -5z m3915 -120 c44 -71 56 -97 51
-118 -4 -20 1 -33 16 -46 21 -19 21 -19 16 4 -4 12 -4 22 -2 22 10 0 86 -168
90 -199 4 -32 20 -78 85 -245 10 -26 16 -52 13 -57 -2 -5 -22 -13 -44 -19 -23
-6 -51 -25 -70 -47 -27 -31 -31 -42 -27 -74 3 -21 17 -62 32 -93 38 -78 39
-153 2 -190 -29 -30 -96 -49 -98 -28 0 4 -2 16 -4 27 -2 11 -6 40 -9 65 -9 63
-50 147 -75 155 -35 11 -59 -3 -190 -114 -123 -103 -273 -211 -296 -211 -6 0
-11 10 -11 23 -2 75 -35 190 -86 292 -43 88 -73 123 -115 134 -48 14 -75 -3
-102 -64 -16 -37 -29 -50 -66 -66 -61 -27 -96 -19 -128 30 -54 82 -70 190 -31
218 10 7 39 13 64 13 62 0 110 17 120 44 9 24 -2 104 -20 151 -6 16 -30 54
-52 83 -23 29 -38 55 -35 58 3 4 39 21 79 38 40 18 111 55 158 82 155 91 185
95 206 26 16 -55 38 -80 93 -104 86 -39 191 5 191 80 0 27 -10 47 -41 84 -23
27 -40 51 -38 52 2 2 54 19 115 38 l111 35 67 -105 c37 -57 70 -102 72 -99 3
3 -25 50 -61 106 -37 55 -63 105 -60 111 10 16 19 6 80 -92z m-1574 -185 c8
-8 7 -23 -6 -62 -21 -64 -17 -89 18 -115 21 -16 42 -20 95 -20 91 1 124 8 296
66 82 27 152 46 155 41 79 -107 129 -231 101 -248 -6 -3 -36 -8 -68 -11 -76
-6 -110 -21 -127 -55 -45 -86 23 -271 116 -317 32 -16 47 -18 80 -11 63 14
107 48 131 102 20 43 25 48 51 45 26 -3 36 -14 73 -83 54 -98 83 -187 90 -280
l6 -70 -58 -27 c-194 -89 -244 -111 -329 -143 -52 -19 -103 -35 -114 -35 -19
0 -19 1 4 43 48 86 38 161 -25 187 -42 17 -135 8 -239 -25 -124 -39 -186 -79
-233 -148 -41 -60 -20 -111 68 -162 80 -47 70 -82 -43 -143 -92 -51 -190 -87
-259 -97 -27 -4 -57 -9 -68 -11 -10 -2 -64 -6 -120 -10 -55 -3 -109 -8 -118
-10 -15 -2 -18 5 -18 49 -2 180 -54 302 -158 371 -52 34 -86 42 -157 37 -39
-3 -91 -32 -110 -62 -38 -57 -101 -44 -132 29 -19 45 -26 161 -11 203 20 57
81 75 183 54 72 -14 109 -10 154 17 35 22 63 72 57 104 -2 11 -7 42 -10 69 -6
41 -47 200 -63 241 -4 11 63 27 167 41 94 12 310 68 352 90 30 16 51 36 59 56
29 69 13 99 -66 122 -64 18 -98 47 -93 77 4 26 100 81 178 102 64 16 174 16
191 -1z m1786 -220 c28 -66 81 -225 72 -216 -5 5 -24 51 -43 103 -19 52 -39
107 -45 123 -16 41 -2 32 16 -10z m-4664 -103 c-29 -86 -31 -89 -42 -72 -5 8
2 41 16 79 29 80 33 87 44 76 4 -4 -4 -42 -18 -83z m227 -130 c21 -21 19 -34
-15 -99 -54 -106 3 -174 140 -166 31 2 69 6 84 9 14 3 45 8 67 11 l42 6 4 -43
c8 -72 1 -242 -10 -269 -6 -14 -18 -33 -26 -42 -15 -15 -20 -14 -59 3 -52 24
-71 25 -108 3 -39 -23 -56 -80 -55 -178 1 -66 6 -88 25 -119 36 -57 65 -64
118 -27 24 17 50 31 59 31 35 0 57 -105 70 -349 5 -86 4 -115 -6 -121 -18 -11
-148 -5 -212 10 -68 16 -151 56 -180 87 -23 24 -26 52 -14 126 8 48 -9 122
-35 159 -39 54 -132 86 -158 54 -13 -16 -16 -97 -6 -158 3 -20 2 -39 -3 -42
-5 -3 -27 11 -49 32 -29 28 -42 51 -53 92 -32 128 -10 694 28 732 5 5 29 0 56
-12 68 -29 84 -26 132 24 45 47 51 68 58 185 3 38 9 58 22 68 26 19 61 16 84
-7z m1837 -160 c52 -199 51 -228 -8 -249 -22 -8 -49 -7 -97 1 -172 29 -254
-34 -255 -197 0 -90 21 -152 68 -199 59 -59 107 -56 175 10 38 37 54 45 92 48
85 7 166 -52 209 -152 19 -45 41 -223 29 -242 -5 -9 -25 -12 -145 -25 -94 -11
-310 -57 -420 -90 -147 -45 -200 -69 -221 -99 -15 -24 -15 -28 0 -50 8 -13 37
-45 63 -70 40 -38 46 -48 37 -63 -21 -35 -227 -92 -330 -93 -88 0 -139 67 -80
105 75 50 37 145 -78 196 -45 20 -61 21 -168 16 -66 -4 -122 -8 -126 -11 -4
-2 -45 -7 -91 -10 -46 -4 -87 -9 -92 -11 -13 -9 -17 7 -23 105 -13 196 -21
255 -42 323 -28 86 -73 107 -134 62 -19 -14 -42 -25 -52 -25 -66 0 -73 216 -7
247 22 11 33 9 77 -9 47 -20 52 -20 75 -5 53 34 77 145 71 324 -4 103 -9 96
76 107 141 20 382 28 396 13 4 -3 -9 -24 -29 -46 -46 -51 -56 -99 -30 -143 29
-50 76 -72 159 -75 107 -3 208 33 281 99 43 40 41 117 -4 162 -28 28 -25 40
15 60 49 25 274 73 472 101 25 4 46 8 48 9 1 2 14 3 29 2 26 -1 28 -6 60 -126z
m2692 95 c5 2 6 -7 3 -20 -2 -15 0 -25 7 -25 7 0 10 -4 7 -9 -3 -5 3 -44 13
-87 27 -111 29 -129 11 -129 -12 0 -15 -16 -14 -80 1 -161 20 -253 50 -241 13
5 15 -7 13 -89 -2 -119 -12 -161 -59 -255 -44 -86 -68 -164 -64 -200 8 -60 5
-89 -14 -126 -25 -49 -57 -78 -77 -70 -15 5 -15 49 0 121 2 11 1 26 -4 33 -5
9 -27 -10 -70 -63 -80 -96 -112 -129 -186 -190 -33 -28 -63 -54 -66 -58 -7
-10 -77 58 -99 98 -52 93 -60 258 -15 295 9 7 45 14 80 15 48 1 70 7 86 21 86
76 80 320 -8 355 -54 22 -84 15 -120 -26 -18 -21 -33 -43 -33 -49 -1 -24 -37
-56 -67 -60 -59 -6 -72 12 -143 189 -48 120 -53 104 58 178 54 36 112 78 129
94 33 30 112 99 181 157 24 20 50 36 56 36 32 0 54 -51 70 -165 14 -94 43
-118 105 -87 59 29 76 63 76 150 0 64 -5 87 -27 133 -34 69 -35 79 -2 110 30
28 107 61 112 48 2 -5 7 -7 11 -4z m76 -392 c7 -79 8 -88 6 -128 -1 -26 -3
-27 -16 -15 -8 8 -17 38 -20 65 -15 145 -15 145 11 145 8 0 15 -23 19 -67z
m-1478 -132 c22 -2 23 -38 2 -87 -38 -88 -40 -103 -18 -125 16 -16 29 -19 61
-15 54 8 258 77 334 114 32 16 84 40 114 54 l55 25 47 -119 c77 -193 96 -218
171 -218 44 0 70 20 107 85 33 57 54 70 99 60 41 -9 61 -57 57 -142 -3 -66
-17 -110 -40 -125 -6 -4 -33 -8 -59 -8 -61 0 -108 -22 -130 -60 -25 -42 -30
-149 -11 -240 19 -89 35 -123 81 -168 30 -29 33 -35 20 -45 -288 -225 -377
-276 -492 -280 -69 -2 -68 -3 -34 85 41 109 6 158 -103 144 -118 -16 -311
-103 -377 -170 -56 -57 -64 -101 -26 -139 15 -15 33 -27 39 -27 6 0 22 -9 35
-19 l24 -18 -45 -27 c-75 -44 -200 -87 -319 -110 -7 -2 -30 -6 -49 -10 -53
-10 -95 -14 -215 -21 -60 -3 -116 -8 -123 -10 -14 -5 -53 52 -70 104 -25 71
-13 126 39 185 63 73 110 85 279 72 95 -7 134 42 134 169 1 118 -35 191 -106
220 -76 30 -143 14 -212 -51 -57 -53 -141 -104 -173 -104 -27 0 -67 50 -88
109 -14 40 -22 113 -28 244 -3 56 -7 54 128 62 83 4 164 15 225 29 14 3 37 8
51 10 45 7 161 58 234 101 131 79 134 157 10 235 -30 19 -55 40 -55 47 0 20
60 82 104 107 73 42 233 87 286 81 14 -2 30 -4 37 -4z m-3285 -393 c47 -27 59
-60 53 -156 -5 -87 4 -115 52 -164 64 -65 188 -108 317 -108 l61 0 0 -92 c0
-169 57 -287 151 -315 50 -16 113 -8 139 17 29 27 54 25 92 -8 64 -57 102
-174 70 -217 -20 -27 -77 -23 -157 9 -35 14 -76 26 -90 26 -31 0 -79 -40 -81
-67 -1 -10 -3 -27 -3 -38 -2 -24 33 -124 63 -183 l22 -43 -28 7 c-89 20 -113
27 -165 47 -47 18 -58 26 -58 45 0 42 -27 87 -90 149 -66 65 -109 90 -136 79
-22 -8 -13 -52 21 -107 17 -26 21 -38 11 -32 -89 50 -232 285 -275 452 -19 73
-82 233 -101 256 -10 12 -55 190 -65 255 -3 25 -9 54 -12 65 -4 15 5 10 35
-18 24 -24 47 -37 58 -35 17 3 19 12 16 68 -1 36 -4 74 -6 85 -9 55 32 64 106
23z m4765 5 c-3 -5 -8 -34 -11 -66 -17 -144 -58 -313 -117 -484 -43 -122 -155
-370 -164 -361 -3 3 4 25 15 49 22 50 26 89 8 89 -26 0 -118 -73 -138 -109
-14 -27 -4 -43 13 -21 7 9 29 29 50 44 l37 28 0 -25 c0 -31 -48 -139 -67 -150
-21 -13 -73 -98 -67 -109 4 -5 18 1 32 14 23 21 23 20 -5 -22 -94 -138 -231
-300 -248 -293 -8 2 -38 -11 -67 -30 -80 -51 -168 -99 -168 -91 0 4 42 59 94
123 96 118 151 209 137 224 -10 10 -48 -8 -115 -54 -25 -17 -61 -35 -78 -40
-28 -8 -36 -6 -50 11 -27 33 -2 127 41 150 11 5 55 15 97 21 75 12 81 14 129
63 81 82 127 205 129 346 l1 75 121 120 c66 66 133 136 148 155 15 19 24 29
21 23 -16 -33 -22 -123 -10 -143 12 -19 41 -10 73 23 44 46 71 127 68 202 -3
46 2 74 21 120 25 61 61 125 69 125 3 0 3 -3 1 -7z m-2556 -305 c1 -143 15
-214 57 -291 32 -60 73 -91 119 -89 44 2 145 59 206 117 26 25 56 46 65 46 9
1 27 3 39 4 38 4 81 -25 102 -69 19 -38 25 -86 22 -163 -1 -44 -32 -74 -68
-68 -193 32 -314 -19 -383 -161 -29 -59 -26 -120 10 -190 16 -32 30 -60 30
-61 0 -2 -45 -11 -90 -18 -19 -3 -89 -17 -155 -31 -345 -75 -455 -135 -388
-214 14 -17 38 -37 54 -46 87 -45 -48 -93 -253 -90 -92 2 -119 6 -145 21 -37
22 -40 39 -18 102 10 29 12 50 6 66 -16 42 -49 48 -331 62 -260 13 -353 24
-367 42 -18 23 -71 154 -77 190 -4 21 0 38 14 56 26 33 56 37 100 16 53 -25
135 -42 170 -34 97 21 80 185 -31 296 -58 59 -96 69 -147 38 -45 -27 -117 -29
-155 -4 -54 35 -94 218 -68 313 11 38 15 42 44 43 18 0 39 2 47 3 8 2 47 6 85
10 39 4 86 9 105 12 19 2 73 5 120 6 94 1 138 -14 166 -58 17 -25 16 -26 -19
-60 -28 -25 -37 -42 -37 -66 0 -65 69 -126 152 -133 36 -4 129 14 250 46 92
25 138 62 138 110 0 25 -12 43 -60 90 -36 35 -56 61 -48 63 7 2 58 20 113 39
147 52 318 93 470 113 28 3 51 7 52 8 1 0 24 2 52 4 l51 3 1 -73z m-2274 -332
c-2 -6 -11 10 -19 34 -28 80 -29 86 -3 31 14 -29 24 -59 22 -65z m4283 -91 c0
-27 -7 -74 -14 -102 -8 -29 -12 -53 -10 -53 9 0 -45 -96 -65 -117 -31 -33 -76
-53 -127 -59 -43 -4 -99 -28 -136 -57 -48 -38 -77 -179 -42 -208 24 -20 93 3
171 56 36 25 68 43 71 40 8 -7 -59 -103 -118 -171 -29 -32 -71 -85 -94 -118
-35 -50 -53 -64 -128 -102 -94 -47 -185 -84 -207 -84 -10 0 -8 7 9 24 34 37
21 59 -32 52 -24 -3 -56 -8 -72 -12 -43 -10 -178 -79 -204 -104 l-23 -22 21
-23 c12 -13 17 -25 12 -29 -10 -6 -188 -53 -231 -61 -14 -3 -55 -11 -91 -18
l-65 -14 -27 56 c-39 82 -60 101 -111 101 -45 0 -128 -23 -240 -65 -91 -34
-138 -37 -176 -14 -53 32 -60 115 -11 135 37 15 120 33 180 39 150 14 192 28
237 77 58 62 44 111 -44 152 -64 30 -117 75 -140 119 -8 16 -13 30 -11 32 2 1
46 6 98 9 99 8 141 12 200 22 19 4 48 8 64 10 88 12 305 88 360 127 73 51 77
86 16 117 -45 23 -70 46 -70 65 0 24 67 83 128 114 81 41 219 87 270 90 56 3
61 -13 34 -98 -24 -75 -28 -116 -10 -127 23 -14 101 -11 156 6 118 37 145 53
346 207 120 93 126 93 126 8z m151 -338 c-10 -9 -11 -8 -5 6 3 10 9 15 12 12
3 -3 0 -11 -7 -18z m-4075 -15 c55 -40 104 -99 104 -125 0 -67 96 -132 242
-164 68 -14 82 -21 101 -47 12 -17 63 -78 113 -136 51 -58 102 -117 114 -132
l21 -27 -42 14 c-42 15 -79 12 -79 -6 0 -19 87 -96 163 -143 91 -57 142 -72
174 -51 12 8 28 15 34 15 16 0 319 -193 319 -203 0 -4 -11 -5 -25 -3 -14 3
-56 8 -93 12 -93 9 -87 7 -197 58 -190 88 -379 196 -357 204 7 2 12 10 12 17
0 17 -92 98 -157 137 -35 22 -53 40 -56 58 -7 31 -71 95 -127 127 -71 40 -96
26 -49 -28 16 -19 29 -30 29 -25 0 5 -7 18 -17 28 -15 17 -15 18 7 18 31 0
132 -102 124 -124 -4 -11 3 -20 25 -29 56 -24 182 -139 168 -153 -7 -7 -98 58
-136 97 -21 22 -43 39 -50 39 -22 0 -295 283 -376 390 -73 96 -77 103 -43 82
42 -26 54 -18 31 24 -8 16 -21 40 -29 53 -12 23 -9 51 6 51 4 0 25 -13 46 -28z
m2163 -248 c30 -56 65 -86 153 -130 74 -37 82 -53 48 -96 -25 -33 -79 -54
-160 -63 -82 -9 -233 -41 -260 -55 -26 -14 -51 -64 -46 -92 20 -107 126 -141
273 -87 123 45 207 70 227 67 23 -3 88 -103 84 -127 -2 -8 -53 -31 -125 -55
-148 -50 -126 -44 -253 -67 -172 -31 -210 -40 -210 -48 0 -16 26 -31 54 -31
68 0 58 -18 -15 -30 -131 -22 -159 -21 -159 6 0 25 -41 31 -245 36 l-200 5
-149 97 c-81 53 -174 110 -206 126 l-57 29 -37 -20 -37 -20 -52 24 c-56 26
-167 111 -167 129 0 10 21 8 84 -8 14 -3 26 -2 26 3 0 18 -54 90 -128 171 -39
43 -88 100 -108 126 l-35 46 63 -6 c35 -3 66 -8 70 -10 3 -2 71 -6 150 -9 263
-10 321 -14 331 -24 7 -7 5 -26 -3 -58 -8 -26 -13 -56 -12 -67 4 -59 105 -97
264 -98 190 -1 307 40 291 102 -3 10 -27 34 -54 52 -27 18 -49 38 -49 44 -1
35 81 71 273 120 134 34 130 33 217 49 127 22 132 22 159 -31z m1601 -141
c-88 -102 -366 -333 -399 -333 -18 0 -62 -36 -53 -44 3 -4 -1 -4 -11 0 -9 3
-17 9 -17 13 0 18 80 82 120 96 56 20 76 38 106 97 15 30 39 57 64 73 22 14
42 25 44 25 3 0 38 22 78 49 83 57 102 63 68 24z m-292 -197 c-15 -33 -28 -46
-43 -46 -32 0 -81 -31 -140 -89 -53 -52 -63 -76 -27 -65 40 13 -87 -60 -200
-115 -261 -127 -458 -188 -530 -165 -34 10 -17 19 73 37 98 19 163 46 173 73
14 37 -20 36 -154 -6 -105 -32 -122 -24 -89 42 11 21 19 44 19 53 0 8 6 15 13
16 6 0 19 2 27 4 31 8 66 15 90 20 109 20 213 50 255 73 54 29 69 56 35 65
-35 9 -12 34 58 62 66 27 150 55 165 55 13 0 8 -27 -8 -40 -42 -35 7 -53 68
-26 18 7 57 23 87 35 30 12 75 33 100 46 25 13 46 22 48 20 2 -1 -7 -23 -20
-49z m-978 -304 c0 -10 -7 -27 -15 -38 -19 -25 -19 -60 1 -68 28 -11 57 -7
152 20 51 15 96 24 99 20 21 -21 -79 -58 -190 -71 -52 -6 -87 -20 -87 -35 0
-11 48 -26 70 -21 8 2 12 0 8 -4 -15 -15 -131 -36 -235 -42 -116 -6 -156 1
-197 36 -10 9 -20 15 -22 14 -2 -2 -30 -3 -61 -2 -56 1 -57 1 -23 11 40 11 62
27 55 38 -2 4 -28 11 -57 15 -50 7 -51 8 -23 16 17 4 82 17 145 28 63 12 169
39 235 60 141 46 145 46 145 23z m-1212 -137 c2 -2 2 -10 0 -18 -2 -12 -15
-11 -73 9 l-70 24 70 -6 c39 -3 72 -8 73 -9z m438 -30 c4 -27 10 -29 99 -29
47 -1 85 -5 85 -9 0 -5 16 -6 36 -4 19 3 32 2 29 -2 -4 -3 -12 -6 -17 -6 -6 0
-13 -6 -15 -12 -7 -20 26 -15 44 7 12 13 30 20 55 20 21 0 38 -2 38 -4 0 -2 3
-13 7 -23 6 -16 5 -17 -12 -3 -17 13 -18 13 -10 0 8 -13 6 -13 -8 -1 -9 7 -24
11 -32 7 -9 -3 -13 -2 -10 4 3 6 1 10 -4 10 -6 0 -11 -4 -11 -8 0 -19 27 -32
69 -33 45 -1 45 -1 11 -8 -81 -16 -372 1 -419 25 -18 9 -79 19 -146 24 -118 9
-167 23 -171 51 -2 14 19 16 189 14 172 -2 191 -4 193 -20z m-142 -64 c3 -4
-6 -6 -19 -3 -14 2 -25 6 -25 8 0 8 39 4 44 -5z m574 -16 c10 -9 -33 -5 -48 5
-11 8 -8 9 14 6 16 -3 31 -8 34 -11z"/>
<path d="M3893 4594 c-17 -9 -39 -25 -49 -35 -42 -46 -4 -153 88 -255 64 -69
91 -74 138 -25 19 21 50 48 68 60 18 13 32 31 32 42 0 21 -22 61 -54 96 -31
36 -10 40 24 5 33 -35 38 -36 59 -23 12 8 7 18 -25 54 -44 51 -50 54 -76 30
-13 -12 -23 -14 -33 -8 -8 6 -31 22 -52 36 -51 35 -82 41 -120 23z m56 -19
c34 -17 156 -147 177 -187 14 -27 12 -48 -5 -48 -4 0 -22 20 -39 44 -18 24
-62 76 -99 116 -87 92 -93 106 -34 75z m3 -108 c112 -136 130 -163 115 -175
-26 -22 -81 31 -159 153 -48 76 -60 100 -51 108 10 11 30 -6 95 -86z"/>
<path d="M2618 4424 c-3 -3 6 -17 20 -31 l26 -26 -29 -14 c-15 -9 -45 -15 -66
-15 -39 1 -58 -11 -39 -23 6 -4 22 -29 35 -56 20 -39 30 -49 50 -49 31 0 31 4
1 57 -14 24 -22 44 -18 47 12 7 146 48 174 52 23 4 27 1 33 -26 4 -18 4 -52 0
-77 -7 -49 -53 -163 -65 -163 -4 0 -11 -7 -14 -16 -7 -19 48 26 76 61 37 47
60 115 61 182 2 60 0 67 -21 76 -17 8 -32 7 -55 -2 -80 -32 -85 -32 -96 0 -8
23 -16 29 -39 29 -16 0 -31 -3 -34 -6z"/>
<path d="M2980 4336 c0 -36 -14 -66 -54 -119 -20 -26 -34 -47 -31 -47 3 0 23
16 45 36 22 20 42 35 43 33 2 -2 12 -24 22 -49 22 -52 34 -70 46 -70 15 0 10
27 -18 96 -27 64 -27 67 -10 96 20 35 15 48 -19 48 -19 0 -24 -5 -24 -24z"/>
<path d="M650 3897 c-18 -45 -37 -92 -43 -104 -29 -63 36 -13 90 68 29 43 45
96 32 104 -36 23 -47 14 -79 -68z m38 -8 c-33 -58 -55 -74 -33 -24 9 22 19 46
22 53 3 6 12 12 20 12 11 0 9 -9 -9 -41z"/>
<path d="M400 3834 c-26 -30 -50 -73 -50 -88 0 -2 30 -2 68 1 60 4 70 8 100
39 18 19 34 34 37 34 11 0 4 -18 -15 -40 -25 -29 -33 -56 -26 -85 12 -49 70
-34 102 28 18 34 5 35 -24 2 -23 -26 -62 -34 -62 -13 0 6 9 22 21 34 20 22 37
114 20 114 -4 0 -20 -13 -35 -29 -19 -20 -40 -30 -67 -33 -21 -2 -39 -2 -39 0
0 2 7 16 15 31 13 27 11 41 -6 41 -4 0 -21 -16 -39 -36z m20 -23 c-6 -12 -18
-21 -27 -21 -13 0 -12 5 7 25 27 29 37 27 20 -4z"/>
<path d="M4510 3881 c-22 -42 -12 -104 28 -171 22 -35 52 -76 67 -92 25 -25
27 -31 17 -53 -16 -35 -57 -49 -104 -36 -33 10 -93 64 -157 141 l-21 25 11
-30 c44 -124 191 -255 254 -227 76 35 82 197 14 368 -34 86 -84 120 -109 75z
m93 -131 c15 -29 25 -56 21 -59 -11 -11 -74 72 -74 96 0 38 22 23 53 -37z"/>
<path d="M3340 3564 c-19 -7 -45 -13 -57 -13 -35 -1 -36 -18 -1 -25 l31 -6 -6
-88 c-8 -108 -17 -189 -23 -222 -5 -24 -9 -22 -65 40 -60 67 -65 81 -50 140 6
19 15 54 21 77 7 27 18 44 30 48 11 4 18 10 15 14 -5 10 -135 -19 -135 -30 0
-4 12 -10 26 -13 26 -7 26 -9 20 -63 -4 -31 -9 -60 -12 -64 -3 -5 -25 15 -51
43 l-45 51 22 17 c36 27 6 29 -72 6 -69 -21 -87 -36 -44 -36 16 0 42 -19 79
-57 95 -99 96 -102 86 -158 -19 -105 -14 -102 -63 -48 -88 98 -176 211 -176
226 0 9 8 20 17 26 38 21 0 22 -69 1 -107 -32 -107 -32 -68 -41 39 -8 86 -55
232 -236 50 -62 96 -113 103 -113 6 0 19 39 29 89 17 83 30 121 38 111 2 -3
31 -36 63 -75 33 -38 61 -72 62 -74 2 -3 7 0 12 5 9 9 12 26 26 154 27 240 35
285 56 301 29 22 12 28 -31 13z"/>
<path d="M246 3164 c-20 -53 6 -109 57 -119 36 -8 77 -31 77 -44 0 -19 -33
-19 -96 0 -53 16 -68 18 -75 8 -11 -18 -3 -26 31 -34 38 -8 45 -20 41 -70 -7
-87 -7 -101 2 -127 5 -16 11 -28 14 -28 11 0 49 25 59 38 9 13 12 12 16 -4 8
-34 -11 -84 -37 -96 -21 -10 -29 -8 -49 11 -27 25 -53 113 -55 191 -1 30 -5
57 -8 60 -3 3 -3 -47 0 -110 6 -147 28 -201 90 -223 28 -10 77 43 78 85 4 90
-11 158 -36 158 -6 0 -18 -11 -25 -25 -20 -37 -31 -20 -29 47 3 71 10 76 76
54 25 -9 55 -16 66 -16 27 0 17 33 -13 40 -20 5 -26 15 -33 50 -11 57 -28 76
-77 84 -49 8 -72 30 -64 62 7 27 0 33 -10 8z"/>
<path d="M1420 2901 c-90 -28 -132 -62 -171 -134 -57 -108 21 -271 142 -296
42 -9 37 -23 -13 -36 -58 -14 -84 -11 -110 11 l-21 19 7 -49 c12 -77 8 -74 84
-61 37 7 83 16 103 19 l36 6 -15 55 c-11 39 -21 56 -36 61 -60 18 -108 109
-110 208 -1 119 107 209 204 169 47 -19 79 -50 100 -98 41 -91 33 -181 -20
-241 -24 -28 -27 -38 -23 -81 3 -26 7 -50 9 -52 2 -2 29 1 61 7 32 6 78 14
103 17 25 4 48 11 51 16 7 12 -11 109 -20 109 -3 0 -11 -10 -16 -22 -11 -25
-89 -50 -140 -46 -25 3 -27 5 -15 15 84 67 101 88 115 137 23 81 10 145 -41
206 -56 66 -167 92 -264 61z"/>
<path d="M4880 2958 c0 -6 6 -19 14 -27 9 -10 17 -50 21 -101 4 -47 9 -87 11
-89 1 -1 -2 -14 -7 -28 -6 -17 -6 -30 0 -37 6 -7 10 -59 10 -117 0 -127 1
-143 10 -104 15 63 -5 474 -24 505 -9 14 -35 12 -35 -2z"/>
<path d="M4810 2883 c0 -9 -8 -25 -17 -36 -13 -13 -18 -36 -18 -77 0 -63 15
-90 49 -90 60 0 84 177 26 195 -11 4 -20 11 -20 16 0 5 -4 9 -10 9 -5 0 -10
-8 -10 -17z m49 -69 c12 -42 -8 -104 -32 -104 -32 0 -44 92 -16 126 20 24 38
16 48 -22z"/>
<path d="M4888 2671 c-7 -19 -103 -91 -130 -96 -34 -8 -36 -18 -4 -33 20 -9
27 -7 47 14 12 13 26 24 29 24 4 0 7 -36 7 -80 1 -82 12 -126 14 -54 1 21 2
67 4 102 1 52 6 67 28 90 15 16 27 31 27 35 0 10 -18 9 -22 -2z"/>
<path d="M3810 2517 c-14 -7 -60 -25 -103 -41 -83 -30 -108 -48 -54 -39 35 5
67 -15 67 -41 0 -7 -31 -78 -68 -157 -38 -79 -77 -161 -87 -182 -10 -21 -19
-36 -21 -34 -8 8 -74 289 -74 313 0 17 9 30 30 42 56 32 30 30 -77 -5 -116
-37 -161 -58 -107 -49 54 9 74 -17 99 -134 2 -8 9 -37 15 -65 6 -27 13 -57 15
-65 2 -8 8 -35 14 -60 20 -84 15 -108 -24 -131 -19 -12 -35 -22 -35 -24 0 -8
226 67 238 80 4 4 -10 5 -31 2 -33 -4 -40 -2 -49 18 -8 18 -6 31 7 57 26 50
77 153 120 246 21 45 42 82 45 82 4 0 21 -67 39 -150 35 -163 34 -177 -17
-204 -51 -28 3 -15 98 23 52 21 96 44 98 50 3 8 -4 8 -24 0 -37 -13 -47 0 -64
84 -7 34 -24 109 -37 167 -40 167 -39 165 -2 200 35 32 31 38 -11 17z"/>
<path d="M265 2100 c-8 -13 3 -87 16 -112 7 -14 6 -16 -6 -12 -12 5 -14 2 -8
-12 4 -11 12 -23 19 -29 7 -5 32 -70 57 -142 25 -73 53 -143 63 -155 14 -20
15 -20 9 -3 -27 73 -93 270 -91 272 1 2 38 -10 82 -26 62 -23 80 -34 85 -52
10 -34 10 -56 1 -43 -12 18 -52 36 -68 30 -21 -8 -17 -42 12 -89 35 -56 63
-78 86 -66 19 10 21 8 37 -42 6 -20 21 -45 33 -55 21 -19 21 -19 13 1 -12 29
-94 269 -95 277 0 3 13 4 30 2 24 -4 29 -2 24 11 -7 17 -40 34 -84 41 -41 8
-159 56 -171 70 -16 20 -28 80 -18 95 17 28 97 -34 177 -137 40 -52 5 14 -40
74 -61 83 -143 134 -163 102z m243 -347 c16 -23 15 -27 -9 -49 -21 -19 -21
-18 -40 5 -19 23 -25 52 -13 64 10 10 49 -2 62 -20z"/>
<path d="M4767 1840 c-24 -21 -56 -62 -71 -91 l-28 -51 23 13 c72 37 159 108
159 129 0 20 -13 40 -26 40 -8 0 -34 -18 -57 -40z m19 -35 c-51 -46 -72 -45
-24 0 21 19 43 35 50 35 7 -1 -5 -16 -26 -35z"/>
<path d="M1589 1778 c0 -2 -2 -14 -5 -28 -5 -27 -18 -66 -42 -118 -11 -26 -19
-31 -34 -26 -38 12 -14 -20 32 -44 25 -12 46 -26 48 -31 4 -12 -48 -71 -63
-71 -19 0 -8 -33 16 -48 17 -11 24 -9 47 8 l27 21 17 -21 c9 -11 20 -42 23
-68 7 -55 34 -114 48 -105 19 12 -20 169 -47 189 -16 11 -14 14 21 32 38 20
38 20 63 0 22 -18 25 -19 28 -4 2 9 -2 24 -10 33 -16 20 -78 47 -87 37 -3 -4
0 -9 7 -11 22 -8 13 -21 -25 -34 -46 -16 -63 -19 -63 -12 0 7 68 92 107 134
32 34 33 36 16 51 -23 21 -59 27 -55 10 3 -16 -46 -112 -57 -112 -5 0 -19 8
-31 18 l-21 17 51 69 c41 55 49 71 39 83 -12 14 -48 37 -50 31z"/>
<path d="M1800 1726 c0 -22 -15 -64 -40 -111 -39 -74 -41 -95 -5 -55 43 48 54
23 101 -245 2 -11 10 -29 18 -40 13 -18 15 -19 33 -3 17 15 119 35 207 41 22
1 41 7 43 13 6 18 -45 26 -84 13 -41 -13 -51 -6 -59 43 -6 35 -6 36 35 43 66
11 49 36 -20 28 -33 -3 -37 -1 -42 24 -6 34 -1 43 22 43 10 0 25 7 32 16 12
15 10 16 -25 12 -33 -4 -39 -1 -47 20 -11 28 -4 42 19 42 9 1 28 7 42 15 22
12 23 14 7 20 -9 4 -28 4 -42 1 -20 -5 -23 -3 -18 11 3 10 12 26 20 35 13 14
12 18 -6 27 -11 6 -29 11 -41 11 -16 0 -19 -4 -14 -24 3 -13 -1 -39 -10 -59
-12 -29 -22 -38 -56 -47 -62 -17 -76 -8 -53 31 10 17 30 41 45 54 l27 23 -22
20 c-12 11 -32 23 -44 27 -21 6 -23 3 -23 -29z m119 -176 c9 -28 8 -32 -15
-40 -36 -14 -38 -13 -50 25 -12 37 -7 43 33 44 15 1 24 -8 32 -29z m23 -80 c0
-11 1 -25 2 -32 2 -19 -55 -33 -65 -17 -17 27 -10 57 14 62 42 8 47 7 49 -13z
m24 -110 l11 -38 -34 -7 c-43 -8 -45 -5 -47 42 -1 31 3 38 24 43 31 8 32 7 46
-40z"/>
<path d="M1710 1397 c0 -14 57 -67 72 -67 10 0 10 21 0 36 -4 6 -22 19 -39 28
-27 13 -33 14 -33 3z"/>
<path d="M1580 1346 c-8 -26 -8 -41 0 -56 13 -25 30 -26 31 -2 6 79 -12 114
-31 58z"/>
<path d="M3628 1363 c-43 -49 -43 -99 -2 -109 14 -4 49 -3 80 1 87 11 88 8 68
-150 -4 -27 -8 -59 -9 -70 -2 -11 -6 -37 -10 -57 -8 -40 -5 -44 25 -28 32 17
57 128 67 302 l6 107 -26 10 c-14 6 -36 8 -47 6 -59 -11 -110 -13 -115 -5 -9
15 -20 12 -37 -7z"/>
<path d="M850 966 c14 -13 27 -22 29 -20 7 6 -31 44 -43 44 -6 0 1 -11 14 -24z"/>
<path d="M1883 773 c-19 -7 -16 -37 5 -56 39 -35 122 -51 146 -27 8 8 2 18
-23 39 l-33 27 80 -8 c44 -4 97 -14 118 -21 76 -28 79 -28 33 -3 -75 40 -274
71 -326 49z m105 -39 c48 -33 -21 -55 -78 -24 -36 19 -21 38 30 39 14 1 36 -6
48 -15z"/>
<path d="M2280 682 c47 -31 100 -90 100 -110 0 -12 -9 -26 -19 -32 -31 -16
-112 -11 -160 10 -53 24 -51 24 -51 1 0 -51 -175 -41 -219 13 -8 9 -12 18 -10
21 13 12 59 11 92 -2 32 -13 36 -18 25 -31 -11 -13 -10 -14 10 -3 12 6 22 14
22 16 0 13 -69 45 -97 45 -70 0 -81 -23 -32 -64 45 -38 97 -58 155 -59 57 -1
88 16 81 44 -4 14 2 13 42 -7 78 -41 210 -30 217 18 3 24 -58 91 -116 127 -52
32 -84 43 -40 13z"/>
<path d="M3760 704 c-48 -21 -81 -54 -75 -74 3 -10 -5 -28 -19 -43 -14 -15
-20 -27 -14 -27 13 0 78 67 78 81 0 6 -9 5 -22 -2 -23 -12 -23 -12 1 14 24 26
81 53 81 38 0 -4 -14 -27 -30 -50 -20 -27 -24 -37 -12 -30 16 10 62 79 63 96
1 13 -15 12 -51 -3z"/>
<path d="M3556 585 c-21 -7 -41 -17 -44 -21 -4 -4 2 -4 13 1 61 24 88 12 43
-19 -17 -12 -18 -16 -7 -16 22 0 71 39 66 53 -5 15 -29 16 -71 2z"/>
<path d="M3457 535 c-35 -33 -35 -47 1 -39 36 9 56 20 73 40 12 15 11 16 -21
10 -26 -5 -31 -4 -20 3 8 6 10 11 5 11 -6 0 -23 -11 -38 -25z m33 -15 c-8 -5
-22 -10 -30 -10 -13 0 -13 1 0 10 8 5 22 10 30 10 13 0 13 -1 0 -10z"/>
</g>
</svg>
