<?xml version="1.0" standalone="no"?>
<!DOCTYPE svg PUBLIC "-//W3C//DTD SVG 20010904//EN"
 "http://www.w3.org/TR/2001/REC-SVG-20010904/DTD/svg10.dtd">
<svg version="1.0" xmlns="http://www.w3.org/2000/svg"
 width="768.000000pt" height="768.000000pt" viewBox="0 0 768.000000 768.000000"
 preserveAspectRatio="xMidYMid meet">
<metadata>
Created by potrace 1.11, written by Peter Selinger 2001-2013
</metadata>
<g transform="translate(0.000000,768.000000) scale(0.100000,-0.100000)"
fill="#000000" stroke="none">
<path d="M3599 7676 c-2 -2 -47 -6 -99 -10 -80 -6 -223 -24 -320 -42 -14 -2
-43 -7 -65 -10 -67 -10 -344 -82 -455 -118 -737 -241 -1342 -662 -1838 -1280
-174 -216 -365 -529 -475 -776 -13 -30 -33 -75 -45 -100 -102 -229 -210 -606
-256 -900 -32 -203 -40 -314 -41 -565 0 -292 10 -445 41 -630 8 -49 17 -103
20 -120 22 -131 87 -374 143 -537 367 -1059 1189 -1918 2226 -2325 336 -131
705 -216 1090 -251 105 -9 505 -9 625 0 227 18 515 70 745 135 142 40 350 111
430 147 17 8 55 24 85 37 97 41 352 174 455 239 155 97 412 281 445 319 3 3
39 35 80 71 263 228 552 579 735 890 67 114 77 133 140 260 184 367 318 789
369 1160 2 19 8 58 11 85 4 28 8 61 11 74 18 117 24 504 11 689 -12 163 -40
371 -67 492 -6 25 -13 56 -16 70 -3 14 -10 44 -14 67 -60 283 -245 744 -415
1028 -26 44 -53 89 -59 100 -6 11 -36 56 -65 100 -543 800 -1334 1359 -2251
1590 -151 38 -226 52 -425 81 -145 21 -237 26 -476 29 -152 2 -278 2 -280 1z"/>
</g>
</svg>
