<?xml version="1.0" standalone="no"?>
<!DOCTYPE svg PUBLIC "-//W3C//DTD SVG 20010904//EN"
 "http://www.w3.org/TR/2001/REC-SVG-20010904/DTD/svg10.dtd">
<svg version="1.0" xmlns="http://www.w3.org/2000/svg"
 width="384.000000pt" height="384.000000pt" viewBox="0 0 384.000000 384.000000"
 preserveAspectRatio="xMidYMid meet">
<metadata>
Created by potrace 1.11, written by Peter Selinger 2001-2013
</metadata>
<g transform="translate(0.000000,384.000000) scale(0.100000,-0.100000)"
fill="#000000" stroke="none">
<path d="M1770 3717 c-3 -3 -34 -7 -70 -10 -223 -20 -507 -117 -710 -241 -70
-43 -199 -136 -229 -164 -10 -9 -42 -40 -72 -68 -161 -151 -283 -320 -379
-521 -60 -125 -120 -310 -136 -418 -3 -16 -7 -36 -10 -44 -19 -55 -27 -480
-11 -590 31 -218 98 -427 196 -611 38 -72 131 -215 159 -245 10 -11 25 -31 35
-45 27 -40 176 -187 247 -245 162 -131 360 -240 556 -304 66 -22 133 -41 149
-44 17 -3 68 -13 115 -22 98 -19 391 -27 490 -14 328 45 597 151 845 335 108
80 220 184 295 275 25 30 47 56 50 59 21 20 137 202 177 280 152 291 214 552
208 875 -4 213 -35 385 -104 571 -182 492 -526 858 -991 1056 -80 34 -224 81
-280 92 -14 3 -50 9 -80 15 -30 6 -68 13 -85 16 -37 7 -359 17 -365 12z"/>
</g>
</svg>
